HIERARCHY
ROOT Hips
{
	OFFSET 0.000000 0.000000 0.000000 
	CHANNELS 6 Xposition Yposition Zposition Yrotation Zrotation Xrotation 
	JOINT Lumbar
	{
		OFFSET 0.000000 0.000000 0.000000 
		CHANNELS 3 Zrotation Xrotation Yrotation
		JOINT Neck
		{
			OFFSET 0.000000 0.445665 0.000000 
			CHANNELS 3 Zrotation Xrotation Yrotation
			End Site
			{
				OFFSET 0.000000 0.227535 0.000000 
			}
		}
		JOINT RightShoulder
		{
			OFFSET 0.019635 0.377685 0.194865 
			CHANNELS 3 Zrotation Xrotation Yrotation
			JOINT RightElbow
			{
				OFFSET 0.000000 -0.243375 0.000000 
				CHANNELS 2 Zrotation Yrotation
				JOINT RightWrist
				{
					OFFSET 0.000000 -0.264825 0.000000 
					CHANNELS 2 Zrotation Xrotation
					End Site
					{
						OFFSET 0.006600 -0.176220 0.000990 
					}
				}
			}
		}
		JOINT LeftShoulder
		{
			OFFSET 0.019635 0.377685 -0.194865 
			CHANNELS 3 Zrotation Xrotation Yrotation
			JOINT LeftElbow
			{
				OFFSET 0.000000 -0.243375 0.000000 
				CHANNELS 2 Zrotation Yrotation
				JOINT LeftWrist
				{
					OFFSET 0.000000 -0.264825 0.000000 
					CHANNELS 2 Zrotation Xrotation
					End Site
					{
						OFFSET 0.006600 -0.176220 -0.000990 
					}
				}
			}
		}
	}
	JOINT RightHip
	{
		OFFSET 0.052140 -0.069960 0.075570 
		CHANNELS 3 Zrotation Xrotation Yrotation
		JOINT RightKnee
		{
			OFFSET 0.000000 -0.402270 0.000000 
			CHANNELS 1 Zrotation
			JOINT RightAnkle
			{
				OFFSET 0.000000 -0.404085 0.000000 
				CHANNELS 3 Zrotation Xrotation Yrotation
				End Site
				{
					OFFSET 0.204105 -0.089430 0.008415 
				}
			}
		}
	}
	JOINT LeftHip
	{
		OFFSET 0.052140 -0.069960 -0.075570 
		CHANNELS 3 Zrotation Xrotation Yrotation
		JOINT LeftKnee
		{
			OFFSET 0.000000 -0.402270 0.000000 
			CHANNELS 1 Zrotation
			JOINT LeftAnkle
			{
				OFFSET 0.000000 -0.404085 0.000000 
				CHANNELS 3 Zrotation Xrotation Yrotation
				End Site
				{
					OFFSET 0.204105 -0.089430 -0.008415 
				}
			}
		}
	}
}
MOTION
Frames: 19
Frame Time: 0.02
-0.00047 -0.0002 0.00044 -150.36549 -27.40902 0.85035 43.9913 -1.92775 -8.8159 -12.37325 6.90082 -1.2044 -20.15893 -5.36916 -6.30962 22.96894 97.62075 9.70614 1.83774 -23.77809 7.8404 -2.5029 30.56267 -107.21836 17.70496 -2.04194 26.24843 -3.32277 -9.30123 -20.20494 -6.11159 -3.11503 -3.7458 31.10322 4.43236 1.85703 -24.34059 -6.27704 2.80077 3.5512
-0.00055 -0.00015 0.00025 -150.26939 -27.45695 0.86677 43.98726 -1.9534 -8.81857 -12.39182 6.87456 -1.20488 -20.37088 -5.4155 -6.13622 23.4884 97.53978 9.674 1.83628 -23.75545 7.81673 -2.41175 30.53277 -107.12123 17.60501 -2.04444 26.28867 -3.35503 -9.56416 -20.19766 -6.1072 -3.10604 -3.73881 31.16704 4.58575 2.5337 -24.33996 -6.27679 2.70777 3.50967
-0.00063 -0.0001 7e-05 -150.17349 -27.50477 0.88317 43.98323 -1.979 -8.82131 -12.41045 6.84832 -1.20537 -20.58265 -5.46189 -5.96292 24.00745 97.45909 9.64197 1.83482 -23.73299 7.79306 -2.32068 30.50299 -107.02417 17.50517 -2.04694 26.32882 -3.38716 -9.82613 -20.1904 -6.10283 -3.09711 -3.73186 31.23072 4.73861 3.20801 -24.33933 -6.27654 2.61508 3.46828
-0.00071 -5e-05 -0.00012 -150.07769 -27.55256 0.89954 43.9792 -2.00457 -8.82397 -12.42897 6.82214 -1.20585 -20.79396 -5.50808 -5.78999 24.52532 97.37841 9.60995 1.83337 -23.71041 7.76946 -2.22979 30.47317 -106.92733 17.40552 -2.04943 26.36894 -3.41931 -10.08823 -20.18314 -6.09845 -3.08815 -3.72489 31.29434 4.89152 3.88254 -24.33869 -6.27629 2.52237 3.42688
-0.0008 -1e-05 -0.0003 -149.98168 -27.60046 0.91593 43.97515 -2.03019 -8.82658 -12.44745 6.79597 -1.20634 -21.00545 -5.55422 -5.61709 25.04366 97.29734 9.57778 1.83192 -23.68767 7.74587 -2.13886 30.44329 -106.83042 17.30575 -2.05193 26.40913 -3.4516 -10.35136 -20.17585 -6.09405 -3.07915 -3.7179 31.35807 5.04497 4.55954 -24.33805 -6.27603 2.42935 3.38535
-0.00088 4e-05 -0.00048 -149.88601 -27.64812 0.93236 43.97119 -2.05576 -8.82963 -12.46641 6.76955 -1.20683 -21.2179 -5.60117 -5.44295 25.56444 97.21741 9.54599 1.83041 -23.66581 7.72206 -2.04749 30.41373 -106.73301 17.20572 -2.05442 26.4492 -3.48338 -10.61088 -20.16867 -6.08975 -3.07035 -3.71103 31.42164 5.19658 5.22818 -24.33744 -6.27581 2.33733 3.34426
-0.00096 9e-05 -0.00067 -149.78985 -27.69619 0.94866 43.96701 -2.08137 -8.83164 -12.48424 6.74373 -1.2073 -21.42772 -5.64626 -5.27157 26.0784 97.13549 9.5136 1.82905 -23.64207 7.69874 -1.95718 30.38343 -106.6369 17.10653 -2.05692 26.48946 -3.51615 -10.87733 -20.16127 -6.08525 -3.06116 -3.70391 31.48545 5.35173 5.91284 -24.33678 -6.27551 2.24343 3.30233
-0.00104 0.00014 -0.00085 -149.69401 -27.74392 0.96513 43.96314 -2.10702 -8.8349 -12.50336 6.71721 -1.20779 -21.6408 -5.69341 -5.0975 26.60111 97.05503 9.48155 1.82752 -23.62032 7.67491 -1.86577 30.35406 -106.53929 17.00618 -2.05942 26.52955 -3.54804 -11.13747 -20.15407 -6.08094 -3.05232 -3.69702 31.54908 5.50362 6.5828 -24.33616 -6.27529 2.15123 3.26116
-0.00112 0.00019 -0.00103 -149.59901 -27.79111 0.98162 43.95919 -2.13244 -8.83856 -12.52311 6.69038 -1.20831 -21.85471 -5.74176 -4.9206 27.12516 96.97783 9.45077 1.82591 -23.59999 7.65067 -1.77343 30.32484 -106.44095 16.90589 -2.06189 26.56943 -3.57871 -11.38966 -20.14713 -6.07684 -3.04392 -3.69042 31.61233 5.65158 7.23472 -24.33561 -6.27512 2.06119 3.22097
-0.00121 0.00024 -0.00122 -149.50052 -27.84104 0.99741 43.95435 -2.15831 -8.8365 -12.53641 6.667 -1.20869 -22.05441 -5.77921 -4.76133 27.61341 96.88632 9.41522 1.82513 -23.56845 7.62942 -1.68765 30.29176 -106.3501 16.8097 -2.06444 26.61051 -3.61596 -11.68689 -20.13874 -6.07145 -3.03303 -3.68216 31.67732 5.82231 7.99024 -24.3347 -6.27455 1.95895 3.17527
-0.00127 0.00028 -0.0014 -149.40856 -27.8854 1.01506 43.95223 -2.18377 -8.8487 -12.56509 6.63527 -1.20935 -22.29005 -5.84219 -4.56407 28.19496 96.82214 9.38811 1.82239 -23.56249 7.60146 -1.58731 30.26873 -106.2414 16.70203 -2.06687 26.64907 -3.63961 -11.88957 -20.13337 -6.06882 -3.02739 -3.67741 31.7389 5.94488 8.52732 -24.33451 -6.27488 1.88232 3.14112
-0.00128 0.00029 -0.0016 -149.34139 -27.91239 1.03481 43.95052 -2.20366 -8.88264 -12.62205 6.58912 -1.21075 -22.57543 -5.95586 -4.26781 28.88964 96.8583 9.39877 1.81597 -23.61161 7.55828 -1.45251 30.25755 -106.09992 16.5862 -2.0688 26.68049 -3.62327 -11.82627 -20.13666 -6.07358 -3.0362 -3.68236 31.78879 5.93505 8.45801 -24.3367 -6.27713 1.87785 3.13946
-0.00126 0.00028 -0.0018 -149.27948 -27.93405 1.05697 43.95272 -2.224 -8.93416 -12.69703 6.53301 -1.21244 -22.90525 -6.09911 -3.9324 29.70421 96.91804 9.41582 1.80732 -23.68914 7.50782 -1.30216 30.2591 -105.9375 16.45485 -2.07065 26.70933 -3.59374 -11.6692 -20.14292 -6.08114 -3.05029 -3.69082 31.8356 5.87694 8.17061 -24.33954 -6.28037 1.89874 3.14924
-0.00126 0.00028 -0.00199 -149.21065 -27.95965 1.07999 43.95787 -2.24697 -8.98893 -12.7729 6.47588 -1.214 -23.24754 -6.24103 -3.61152 30.55766 96.9494 9.41963 1.79856 -23.76363 7.45854 -1.15521 30.26542 -105.77414 16.31496 -2.07266 26.73958 -3.57208 -11.5594 -20.14758 -6.08754 -3.06191 -3.69761 31.88545 5.84105 7.98765 -24.34181 -6.28348 1.90679 3.15322
-0.00124 0.00027 -0.0022 -149.16096 -27.97929 1.09478 43.94354 -2.25779 -8.99611 -12.81053 6.44206 -1.21555 -23.45492 -6.33046 -3.30449 31.0185 97.05199 9.46455 1.79436 -23.79681 7.41802 -1.02332 30.22829 -105.65502 16.23951 -2.07415 26.76917 -3.54268 -11.43 -20.15328 -6.09345 -3.07376 -3.7047 31.92873 5.80377 7.78198 -24.34523 -6.28525 1.92044 3.15972
-0.00125 0.00028 -0.00238 -149.07263 -28.00951 1.12724 43.9701 -2.29424 -9.10681 -12.93203 6.35743 -1.21719 -23.95017 -6.538 -2.95915 32.32386 97.01602 9.42853 1.78034 -23.92241 7.35778 -0.85685 30.28332 -105.43862 16.02788 -2.0767 26.79908 -3.52601 -11.31887 -20.15756 -6.10107 -3.08646 -3.71204 31.98449 5.75806 7.57165 -24.34644 -6.29006 1.92846 3.16371
-0.00134 0.00033 -0.00247 -148.87713 -28.07348 1.20809 44.11186 -2.39887 -9.49567 -13.28089 6.13431 -1.21894 -25.25962 -7.04872 -2.51881 35.94325 96.55664 9.14178 1.73806 -24.29779 7.24307 -0.59493 30.60015 -104.9615 15.43119 -2.08216 26.83267 -3.54998 -11.28478 -20.15687 -6.11233 -3.09961 -3.71886 32.07747 5.70052 7.40571 -24.34109 -6.30282 1.91434 3.1578
-0.00147 0.0004 -0.00253 -148.64275 -28.14645 1.30637 44.29253 -2.52936 -9.98777 -13.71334 5.86076 -1.22084 -26.85077 -7.67979 -2.04075 40.40397 95.96444 8.77913 1.68627 -24.76389 7.10934 -0.29965 31.00639 -104.38775 14.70186 -2.08851 26.86504 -3.5867 -11.27195 -20.15472 -6.12528 -3.1135 -3.72584 32.18138 5.63656 7.2425 -24.33357 -6.31865 1.8937 3.14897
-0.00158 0.00046 -0.00261 -148.4252 -28.21476 1.39683 44.45516 -2.65015 -10.43604 -14.10757 5.61035 -1.22265 -28.29417 -8.26658 -1.57957 44.47493 95.45488 8.46683 1.63996 -25.18875 6.98516 -0.0219 31.36608 -103.85503 14.03979 -2.09469 26.89817 -3.61624 -11.24663 -20.15347 -6.1377 -3.12754 -3.73302 32.28065 5.57539 7.07483 -24.32721 -6.33322 1.87635 3.14161
